<?xml version="1.0" encoding="utf-8"?>
<!-- Generator: Adobe Illustrator 19.1.0, SVG Export Plug-In . SVG Version: 6.00 Build 0)  -->
<svg version="1.1" id="Слой_1" xmlns="http://www.w3.org/2000/svg" xmlns:xlink="http://www.w3.org/1999/xlink" x="0px" y="0px"
	 viewBox="0 0 800 292" style="enable-background:new 0 0 800 292;" xml:space="preserve">
<style type="text/css">
	.st0{display:none;}
	path {fill:#fff !important}
	rect {stroke:#fff !important}
	.st1{display:inline;fill:#fff}
	.st2{display:inline;fill:none;stroke:#030405;stroke-width:9.6974;stroke-linejoin:round;stroke-miterlimit:10;}
	.st3{display:inline;fill:none;stroke:#030405;stroke-width:7.273;stroke-miterlimit:10;}
	.st4{display:inline;fill:#343435;}
	.st5{fill:none;stroke:#363636;stroke-width:5;stroke-miterlimit:10;}
	.st6{fill:#030405;}
	.st7{display:inline;fill:#030405;}
	.st8{fill:none;stroke:#030405;stroke-width:2.74;stroke-miterlimit:10;}
</style>
<g id="XMLID_50_" class="st0">
	<path id="XMLID_55_" class="st1" d="M23.1,262.7h5.6l0.6,2h33.5l0.7-2h5.7l7.4,20.8l-7.9,2.8c-1.8-3.5-3-5.7-3.8-6.8
		c-1.5-2.1-3.2-3.7-5.2-4.9c-1.5-0.9-2.9-1.4-4.4-1.4c-0.7,0-1.1,0.2-1.4,0.5c-0.2,0.3-0.4,1.1-0.4,2.2v34.2c0,2,0.1,3.3,0.2,3.8
		s0.4,0.9,0.7,1.2c0.3,0.3,0.8,0.5,1.4,0.6c0.6,0.1,2.2,0.1,4.8,0.1v8.2h-29v-8.2h1.8c1.9,0,3.2-0.1,3.7-0.4c0.5-0.2,1-0.7,1.2-1.3
		c0.3-0.6,0.4-1.9,0.4-3.8v-34.9c0-1-0.1-1.6-0.3-1.9c-0.2-0.3-0.7-0.4-1.5-0.4c-1.5,0-3.1,0.6-4.9,1.7c-1.8,1.1-3.4,2.7-4.8,4.7
		c-0.6,0.8-1.8,3-3.6,6.7l-7.8-2.8L23.1,262.7z"/>
	<path id="XMLID_57_" class="st1" d="M103.7,280.6c4.9,0,9.1,1,12.7,2.9c3.6,1.9,6.4,4.5,8.3,7.8c1.9,3.3,2.9,7.1,2.9,11.5
		c0,6.6-2.2,12-6.5,16.2s-10.1,6.2-17.3,6.2c-7.4,0-13.2-2.1-17.6-6.3c-4.2-4-6.3-9.4-6.3-16.2c0-4.5,1-8.3,2.9-11.5
		c1.9-3.2,4.7-5.8,8.3-7.7C94.8,281.6,99,280.6,103.7,280.6z M103.9,289.9c-1.6,0-3.1,0.5-4.6,1.4c-1.4,1-2.5,2.4-3.3,4.3
		c-0.8,1.9-1.2,4.3-1.2,7.2c0,3,0.4,5.5,1.2,7.4c0.8,2,1.8,3.4,3.2,4.3c1.3,0.9,2.8,1.4,4.5,1.4c2.5,0,4.6-1.1,6.4-3.2
		c1.8-2.1,2.7-5.4,2.7-9.9c0-4.3-0.8-7.6-2.5-9.7C108.6,291,106.5,289.9,103.9,289.9z"/>
	<path id="XMLID_60_" class="st1" d="M133.1,281.6l19.9-0.4v27.7c0,2,0.1,3.3,0.4,3.9c0.2,0.7,0.7,1.2,1.3,1.6
		c0.6,0.4,1.4,0.6,2.4,0.6c1.4,0,2.9-0.3,4.5-1c0.6-0.3,2.3-1.3,5-3v-16.6c0-1.4-0.1-2.4-0.3-3c-0.2-0.5-0.6-0.9-1-1.2
		c-0.4-0.2-1.3-0.4-2.5-0.4h-2.5v-8.2l20-0.4v30.5c0,1.6,0.1,2.6,0.3,3c0.2,0.4,0.5,0.7,0.9,0.9c0.4,0.2,1.4,0.3,3,0.3h2.3v8.2
		l-18.7,0.5v-5c-2.5,1.8-5,3.2-7.5,4.2c-2.5,0.9-5.1,1.4-7.6,1.4c-2,0-3.9-0.3-5.6-1c-1.7-0.7-3.2-1.6-4.3-2.7
		c-1.2-1.1-2-2.4-2.6-3.9s-0.9-3.4-0.9-5.8v-17.6c0-1.6-0.1-2.6-0.3-3.1c-0.2-0.4-0.5-0.7-0.9-1c-0.4-0.2-1.3-0.3-2.7-0.3h-2.4
		V281.6z"/>
	<path id="XMLID_62_" class="st1" d="M210.6,280.6v6.2c2.3-2.4,4.2-4,5.9-4.9c1.7-0.9,3.3-1.3,4.8-1.3c1.4,0,2.6,0.3,3.7,1
		c1.1,0.6,2,1.6,2.6,2.8c0.6,1.2,1,2.5,1,3.8c0,1.8-0.6,3.4-1.8,4.9c-1.2,1.4-2.8,2.2-5,2.2c-0.6,0-1.1,0-1.5-0.1s-1.4-0.4-2.8-0.9
		c-0.7-0.2-1.3-0.3-1.8-0.3c-0.7,0-2,0.5-3.7,1.4v16.7c0,1.4,0.1,2.3,0.3,2.8c0.2,0.4,0.6,0.7,1,0.9c0.5,0.2,1.5,0.3,3.2,0.3h1.9
		v8.2h-26.3v-8.2h2.2c1.6,0,2.6-0.1,2.9-0.3c0.4-0.2,0.7-0.5,0.9-0.9c0.2-0.4,0.3-1.4,0.3-2.9v-19.6h-6.3v-8.2
		c4.6-0.3,9.4-1.5,14.4-3.6H210.6z"/>
	<path id="XMLID_64_" class="st1" d="M251.9,280.6v31.5c0,1.5,0.1,2.4,0.3,2.8c0.2,0.3,0.5,0.6,0.9,0.8c0.4,0.2,1.4,0.3,3,0.3h2.3
		v8.2H232v-8.2h2.3c1.5,0,2.4-0.1,2.8-0.2c0.4-0.2,0.7-0.4,0.9-0.8c0.2-0.4,0.3-1.1,0.3-2.2v-20.3H232v-8c2.2-0.1,4.4-0.4,6.4-0.7
		c2.1-0.4,3.9-0.8,5.5-1.3c1.1-0.3,2.3-0.9,3.9-1.7H251.9z M245,261.6c2.2,0,4,0.8,5.5,2.3c1.5,1.5,2.3,3.4,2.3,5.5
		c0,2.2-0.8,4-2.3,5.6c-1.5,1.5-3.4,2.3-5.5,2.3c-2.2,0-4-0.8-5.5-2.3c-1.5-1.5-2.3-3.4-2.3-5.5c0-2.1,0.8-4,2.3-5.5
		C241.1,262.4,242.9,261.6,245,261.6z"/>
	<path id="XMLID_67_" class="st1" d="M292.2,281.6h5.6l3.5,11.8l-8.1,3.2c-1.5-2.5-3.5-4.4-5.8-5.8c-2.3-1.4-4.6-2.1-6.9-2.1
		c-1.5,0-2.6,0.3-3.4,0.8c-0.7,0.5-1.1,1.1-1.1,1.8c0,0.6,0.3,1.2,0.8,1.7c0.5,0.5,1.6,1.1,3.3,1.6l11.7,4.2c2.1,0.7,4.1,1.7,6,2.8
		s3.3,2.5,4.3,4.1c1,1.6,1.4,3.5,1.4,5.6c0,3.9-1.5,7-4.4,9.5c-3.5,2.9-7.8,4.3-13,4.3c-4.4,0-8.3-1.1-11.6-3.4l-1.2,2.3h-5.7
		l-5.2-14l8-3.4c2,3.2,4.5,5.6,7.5,7.4c3,1.8,5.7,2.7,8.1,2.7c1.5,0,2.8-0.4,3.9-1.1c0.8-0.6,1.2-1.2,1.2-2c0-0.7-0.3-1.3-0.9-1.9
		s-2-1.3-4.1-2l-9.2-3.2c-5.1-1.8-8.6-3.7-10.4-5.7c-1.8-2-2.7-4.4-2.7-7.2c0-3.6,1.4-6.6,4.3-9c3.3-2.8,7.3-4.2,12.1-4.2
		c4.3,0,7.9,1,10.9,2.9L292.2,281.6z"/>
	<path id="XMLID_69_" class="st1" d="M328.1,280.6v5.7c2.5-1.9,5-3.3,7.5-4.3c2.6-0.9,5.2-1.4,7.8-1.4c1.7,0,3.3,0.3,4.8,0.7
		c1.5,0.5,2.8,1.1,3.9,1.9c1,0.8,2,1.9,2.8,3.2c2.8-2.1,5.4-3.6,7.9-4.5c2.5-0.9,5.1-1.4,7.7-1.4c2.3,0,4.3,0.4,6.2,1.2
		c1.8,0.8,3.3,1.9,4.5,3.3c1.1,1.4,1.9,2.9,2.2,4.6c0.2,1,0.3,2.5,0.3,4.5v17.6c0,1.4,0.1,2.4,0.3,2.8c0.2,0.4,0.6,0.8,1.1,1
		c0.4,0.2,1.4,0.3,3.1,0.3h1.9v8.2h-24.8v-8.2c1.8,0,3-0.1,3.5-0.3c0.5-0.2,0.8-0.5,1.1-0.9c0.2-0.4,0.3-1.3,0.3-2.7v-15.5
		c0-1.8-0.1-3-0.4-3.6c-0.2-0.6-0.7-1.1-1.4-1.5c-0.7-0.4-1.5-0.6-2.5-0.6c-1.1,0-2.3,0.3-3.6,0.7c-1.3,0.5-3.2,1.6-5.7,3.3v16.7
		c0,1.7,0.1,2.7,0.3,3.1c0.2,0.4,0.6,0.8,1.2,1c0.3,0.1,1.4,0.2,3.3,0.3v8.2h-23.3v-8.2c1.9,0,3.1-0.1,3.5-0.3
		c0.4-0.2,0.8-0.5,1-0.9c0.2-0.4,0.3-1.5,0.3-3.1V297c0-2.2-0.2-3.7-0.6-4.5c-0.6-1.1-1.7-1.7-3.3-1.7c-0.8,0-1.6,0.1-2.5,0.3
		c-0.9,0.2-1.8,0.5-2.6,0.9c-0.5,0.2-1.6,1-3.5,2.2l-1,0.6v16.6c0,1.6,0.1,2.6,0.3,3c0.2,0.4,0.5,0.7,1,1c0.5,0.3,1.4,0.4,2.6,0.4
		h1.2v8.2h-24.9v-8.2h1.7c1.8,0,2.9-0.1,3.3-0.3c0.4-0.2,0.8-0.5,1-1c0.2-0.5,0.3-1.5,0.3-3.1v-19.1h-6.3v-8.2
		c5.2-0.5,10-1.7,14.4-3.6H328.1z"/>
	<path id="XMLID_71_" class="st1" d="M447.2,264.7h13.4l17.9,45.9c1,2.4,1.8,3.9,2.6,4.5c0.7,0.6,2.1,0.8,4.1,0.8v8.2H457v-8.2
		l1.7,0c1.6,0,2.7-0.2,3.3-0.6s0.9-0.9,0.9-1.5c0-0.5-0.3-1.6-0.8-3.2l-1.8-5.4h-18.1l-2.2,6c-0.5,1.3-0.7,2.1-0.7,2.5
		c0,0.5,0.2,0.9,0.5,1.2c0.3,0.4,0.9,0.6,1.6,0.8c0.5,0.1,1.8,0.2,4,0.2v8.2h-23v-8.2c1.5,0,2.6-0.1,3.2-0.4
		c0.7-0.3,1.2-0.6,1.7-1.2c0.4-0.5,0.9-1.5,1.5-2.9L447.2,264.7z M445.4,296.7h11.8l-5.8-16.3L445.4,296.7z"/>
	<path id="XMLID_74_" class="st1" d="M507.6,261.6v49.9c0,1.7,0.1,2.7,0.2,3c0.2,0.6,0.6,1,1.3,1.2c0.4,0.2,1.6,0.3,3.4,0.3h1.5v8.2
		h-26.4v-8.2h1.6c1.7,0,2.8-0.1,3.3-0.3c0.5-0.2,0.8-0.6,1.1-1c0.2-0.5,0.3-1.5,0.3-3.1v-38h-6.3v-8.2c5.1-0.3,10.3-1.6,15.8-3.6
		H507.6z"/>
	<path id="XMLID_76_" class="st1" d="M537.2,261.6v49.9c0,1.7,0.1,2.7,0.2,3c0.2,0.6,0.6,1,1.3,1.2c0.4,0.2,1.6,0.3,3.4,0.3h1.5v8.2
		h-26.4v-8.2h1.6c1.7,0,2.8-0.1,3.3-0.3c0.5-0.2,0.8-0.6,1.1-1c0.2-0.5,0.3-1.5,0.3-3.1v-38h-6.3v-8.2c5.1-0.3,10.3-1.6,15.8-3.6
		H537.2z"/>
	<path id="XMLID_78_" class="st1" d="M567.8,280.6v31.5c0,1.5,0.1,2.4,0.3,2.8c0.2,0.3,0.5,0.6,0.9,0.8c0.4,0.2,1.4,0.3,3,0.3h2.3
		v8.2h-26.3v-8.2h2.3c1.5,0,2.4-0.1,2.8-0.2c0.4-0.2,0.7-0.4,0.9-0.8c0.2-0.4,0.3-1.1,0.3-2.2v-20.3h-6.3v-8
		c2.2-0.1,4.4-0.4,6.4-0.7c2.1-0.4,3.9-0.8,5.5-1.3c1.1-0.3,2.3-0.9,3.9-1.7H567.8z M560.9,261.6c2.2,0,4,0.8,5.5,2.3
		c1.5,1.5,2.3,3.4,2.3,5.5c0,2.2-0.8,4-2.3,5.6c-1.5,1.5-3.4,2.3-5.5,2.3s-4-0.8-5.5-2.3c-1.5-1.5-2.3-3.4-2.3-5.5
		c0-2.1,0.8-4,2.3-5.5C557,262.4,558.8,261.6,560.9,261.6z"/>
	<path id="XMLID_81_" class="st1" d="M605,298.4v-3.2c0-1.9-0.2-3.2-0.5-3.9c-0.3-0.7-0.9-1.3-1.7-1.8c-0.8-0.5-1.8-0.7-3.1-0.7
		c-0.9,0-1.8,0.2-2.6,0.5c-0.8,0.3-1.4,0.7-1.8,1.2c-0.5,0.5-1,1.4-1.6,2.8c-0.8,1.8-1.7,3-2.7,3.8c-1.1,0.8-2.3,1.2-3.8,1.2
		c-1.8,0-3.3-0.6-4.5-1.7c-1.2-1.1-1.7-2.5-1.7-4.2c0-1.9,0.6-3.6,1.8-5.1c1.6-2,4-3.6,7.1-4.8s6.7-1.9,10.7-1.9s7.3,0.6,10.1,1.9
		c2.8,1.3,4.7,2.8,5.8,4.6c1.1,1.8,1.6,4.5,1.6,8.1v15.3c0,1.9,0.1,3.1,0.3,3.6c0.2,0.5,0.6,1,1.3,1.4s1.4,0.6,2.2,0.6
		c0.8,0,1.9-0.2,3.2-0.7v8.3c-2.4,0.8-4.7,1.2-7,1.2c-2.6,0-4.8-0.4-6.7-1.3c-1.8-0.9-3.4-2.1-4.6-3.8c-2.9,1.8-5.4,3.2-7.7,3.9
		c-2.3,0.8-4.6,1.2-6.7,1.2c-4.1,0-7.3-1.1-9.8-3.4c-2.5-2.3-3.8-5.1-3.8-8.5c0-1.9,0.4-3.7,1.3-5.2c0.9-1.6,2.2-3,3.9-4.2
		c1.7-1.2,4.4-2.2,8-3.2C595.5,299.4,599.8,298.8,605,298.4z M605,305.4c-3.7,0.5-6.3,1.1-7.9,1.6c-1.5,0.5-2.6,1.3-3.3,2.1
		c-0.7,0.8-1,1.7-1,2.6c0,1.1,0.4,2.1,1.3,2.9c0.9,0.8,2,1.2,3.5,1.2c0.9,0,2-0.2,3.3-0.7c1.2-0.5,2.6-1.2,4.1-2.1V305.4z"/>
	<path id="XMLID_84_" class="st1" d="M648.7,280.6v5.7c3.2-2.2,6-3.7,8.2-4.5c2.3-0.8,4.6-1.2,7-1.2c2.8,0,5.2,0.6,7.3,1.7
		c2.1,1.2,3.7,2.6,4.6,4.4c1,1.7,1.4,4.2,1.4,7.4v17.7c0,1.5,0.1,2.5,0.3,2.9c0.2,0.4,0.5,0.7,1,0.9c0.3,0.1,1.4,0.2,3.1,0.2h2.1
		v8.2h-25v-8.2c1.9,0,3-0.1,3.2-0.1c0.7-0.2,1.2-0.5,1.4-1c0.2-0.4,0.3-1.4,0.3-2.9v-15.6c0-2-0.2-3.3-0.6-3.9
		c-0.7-1-1.8-1.5-3.2-1.5c-1.2,0-2.5,0.3-3.9,0.8c-1.4,0.5-3.3,1.6-5.6,3.3v16.9c0,1.8,0.2,3,0.6,3.4c0.4,0.4,1.4,0.6,2.9,0.6h1.4
		v8.2h-24.8v-8.2h1.2c2,0,3.2-0.1,3.6-0.3c0.5-0.2,0.8-0.5,1.1-0.9c0.2-0.4,0.4-1.3,0.4-2.5v-19.8h-6.3v-8.2
		c5.1-0.6,9.9-1.8,14.3-3.6H648.7z"/>
	<path id="XMLID_86_" class="st1" d="M728.1,308l6.3,5.5c-3.4,4.1-6.8,7-10.4,8.9c-3.6,1.8-7.5,2.8-11.6,2.8
		c-6.6,0-12.1-2.1-16.5-6.4c-4.4-4.3-6.6-9.5-6.6-15.7c0-4.2,1-8,3.1-11.5c2.1-3.5,4.9-6.2,8.5-8.1c3.6-1.9,7.8-2.9,12.7-2.9
		c5.9,0,10.6,1.4,14.3,4.1c3.7,2.7,5.6,5.6,5.6,8.6c0,1.3-0.3,2.4-0.9,3.4c-0.6,1-1.5,1.8-2.7,2.4s-2.5,0.9-3.8,0.9
		c-1.1,0-2-0.2-2.9-0.6c-0.9-0.4-1.6-1-2.1-1.6c-0.3-0.3-0.8-1.2-1.5-2.6c-0.9-1.8-1.7-3.1-2.2-3.7c-0.5-0.6-1.1-1.1-1.8-1.4
		s-1.5-0.5-2.4-0.5c-1.5,0-2.9,0.5-4.2,1.4c-1.4,1-2.5,2.4-3.3,4.3c-0.9,1.9-1.3,4.1-1.3,6.5c0,2.6,0.5,5,1.5,7.1
		c1,2.1,2.4,3.7,4.1,4.8c1.7,1.1,3.6,1.6,5.7,1.6c2,0,4-0.5,6-1.6C723.6,312.6,725.8,310.7,728.1,308z"/>
	<path id="XMLID_88_" class="st1" d="M778.4,308.4l5.8,5.9c-3.4,3.8-6.8,6.6-10.2,8.3c-3.5,1.7-7.2,2.6-11.3,2.6
		c-6.5,0-11.9-2.2-16.4-6.6c-4.4-4.4-6.6-9.7-6.6-15.9c0-4.1,1-7.8,3-11.2c2-3.4,4.7-6.1,8.3-8c3.5-1.9,7.5-2.9,12-2.9
		c2.8,0,5.4,0.4,7.8,1.2c2.3,0.8,4.4,2,6.1,3.5c1.7,1.5,3.2,3.4,4.2,5.6c1.1,2.2,1.8,4.4,2.2,6.8c0.2,1.2,0.3,3,0.3,5.5h-28.7
		c0,3.6,1.1,6.5,3.2,8.8c2.1,2.2,4.6,3.3,7.6,3.3c1.9,0,4-0.6,6.2-1.7C774,312.5,776.2,310.7,778.4,308.4z M769.9,296.1
		c-0.2-1.7-0.6-3-1.2-4c-0.6-1-1.4-1.8-2.5-2.3c-1-0.6-2.1-0.9-3.3-0.9c-1.2,0-2.3,0.3-3.5,0.9c-1.1,0.6-2,1.4-2.7,2.4
		c-0.7,1-1.1,2.3-1.3,3.9H769.9z"/>
</g>
<g id="XMLID_42_" class="st0">
	<path id="XMLID_47_" class="st2" d="M752-3.3c-29.3-16.4-71.9,13.8-95.5,13.9c-23.6,0.1-66.6-29.6-95.7-12.8
		c-9.3,5.4-14.5,15.7-16.3,28.8c-7.1-5.2-13.3-9.5-17.5-13.3C514.6,2.2,495-14.9,489.8-27.1c-2.1-4.9-8-5.3-10.2-0.2
		c-5.2,12-25.7,29.4-38.1,40.6c-4.7,4.2-11.8,9.1-19.8,15c-0.5-0.2-0.8,0.4-1.5,0.7c-11.6,4-29.6,4.3-37.6-4.7
		c-6.4-7.2-3.1-22.3,1.6-34c1-2.4-1.8-4.2-3.6-2.4c-8.9,8.7-20.3,18-33.1,13.7c-12-4.6-14.9-20-15.6-32.6c-0.2-2.6-3.4-3-4.3-0.6
		c-4.2,11.5-11.3,28.1-27.6,26.9c-11.9-0.9-21.4-11.5-27.5-22.1c-1.3-2.3-4.4-1.2-4.1,1.4c1.4,12,1.8,31.1-12.1,35.8
		c-10.7,3.6-24.3-0.4-34.8-7.3c-2.2-1.5-4.4,0.9-3,3.1c6.8,10.4,13.8,24.8,7.1,35.1c-1.6,2.5-4.7,4.6-8.6,6.1
		c-27.2-43.3-77.3-68.5-83.2-70v0c0,0,0,0,0,0s0,0,0,0v0c-8.2,2.1-100.6,49.3-100.6,127.1c0,55.6,45,100.7,100.6,101h0h0
		c36.9-0.2,69.2-20.2,86.7-49.9c7.4,0.2,14.4,2.1,18.7,6.9c6.4,7.2,3.1,22.3-1.6,33.9c-1,2.4,1.7,4.2,3.6,2.4
		c8.9-8.7,20.3-18,33.1-13.7c12,4.6,14.9,20.1,15.6,32.6c0.2,2.6,3.4,3,4.3,0.6c4.2-11.5,11.3-28.1,27.6-26.9
		c11.9,0.9,21.4,11.5,27.5,22c1.3,2.3,4.4,1.2,4.1-1.4c-1.4-12-1.8-31.1,12.1-35.8c10.7-3.6,24.2,0.4,34.8,7.3
		c0.7,0.4,1.4,0.5,1.9,0.4c2.3,1.6,4.7,3,7,4.2c8.7,4.6,29.3,11.6,73.4,11.6c44,0,68.2-7,76.9-11.6c11.3-5.9,22.7-16,30.2-31.5
		c2,2.5,4.1,4.8,6.2,7.1c22.5,24.2,43.7,32.5,61.8,32.8c18-0.5,39.2-9.2,61.4-33.6C763.4,114,788.5,17.2,752-3.3z"/>
	<path id="XMLID_46_" class="st3" d="M496.5,132.7l0-73.8c0-0.1,0-0.3,0-0.5c-0.4-6.5-5.7-11.6-12.2-11.6c-6.6,0-12,5.2-12.2,11.7
		c0,0.1,0,0.3,0,0.4v73.8c0,0.1,0,0.2,0,0.3c0.2,6.6,5.6,11.9,12.3,11.9c6.7,0,12.1-5.3,12.3-11.9
		C496.5,133,496.5,132.8,496.5,132.7z"/>
	<path id="XMLID_45_" class="st3" d="M166.6,126.2c-0.9-1.3-21.5-29.5-21.5-29.5c-0.2-0.3-0.5-0.5-0.7-0.7l-4.4-2.2v-1l4.2-2
		c0.3-0.2,0.6-0.5,0.8-0.7c0,0,17.4-24.9,18.4-26.4c1-1.5,1.4-3.5,1.4-5.5c0-6.3-5.1-11.5-11.4-11.4c-4.1,0-7.6,2.2-9.7,5.5
		l-22.3,33.1c0,0,0-26.2,0-26.3c0-6.8-5.5-12.3-12.3-12.3c-6.8,0-12.3,5.5-12.3,12.3c0,0.1,0,68.5,0,74.5c0,6,5.7,11.4,12.2,11.4
		c6.6,0,12.2-5.5,12.2-11.6c0-6.1,0-28,0-28h0.4c0,0,22.6,31.7,24.7,34.4c2,2.7,6.1,5,9.9,5c6.7,0,12.2-5.5,12.2-12.2
		C168.5,130.6,168.3,128.6,166.6,126.2z"/>
	<path id="XMLID_44_" class="st3" d="M347.8,58.5c0-6.4-5.2-11.6-11.6-11.6c-4.5,0-8.4,2.6-10.4,6.4c-0.1,0.1-0.1,0.2-0.2,0.3
		L313.9,78c-0.1,0.2-0.1,0.3-0.2,0.5l-1.6,6h-1l-1.5-6c-0.1-0.2-0.1-0.4-0.2-0.6l-12.2-24.2c0,0,0-0.1-0.1-0.1
		c-2.1-4-6.3-6.8-11.2-6.8c-7,0-12.6,5.6-12.6,12.6c0,1.9,0.4,3.7,1.2,5.3c0,0.1,0,0.1,0.1,0.2l0.1,0.2c0.1,0.2,0.2,0.4,0.3,0.6
		l23.1,42.6v24.1c0,0,0,0.1,0,0.1c0,0.1,0,0.2,0,0.3c0,6.8,5.5,12.3,12.3,12.3c6.8,0,12.3-5.5,12.3-12.3c0-0.1,0-0.2,0-0.3
		c0,0,0-0.1,0-0.1l0-24.2l23.8-44c0,0,0,0,0-0.1C347.3,62.5,347.8,60.5,347.8,58.5z"/>
	<path id="XMLID_43_" class="st3" d="M697.5,58.6c0-6.6-5.3-11.9-11.9-11.9c-5,0-9.2,3-11,7.4c0,0.1-0.1,0.2-0.1,0.3l-0.1,0.4
		c-0.1,0.2-0.1,0.3-0.2,0.5l-14.2,42.1c0,0.1-0.1,0.2-0.1,0.4l-1.4,7.3h-0.8l-1.4-7.4c0-0.1-0.1-0.3-0.1-0.4L641.6,56
		c0-0.1,0-0.1-0.1-0.2l-0.1-0.3c0-0.1-0.1-0.1-0.1-0.2c-1.9-5-6.7-8.6-12.4-8.6c-7.2,0-13,5.9-12.9,13.2c0,1.6,0.3,3.1,0.8,4.5
		c0,0,0,0,0,0.1l28,72.6c0,0.1,0,0.1,0.1,0.1c1.9,4.7,6.4,8,11.7,8c5.4,0,9.9-3.3,11.7-8c0,0,0-0.1,0.1-0.1L696.7,63
		c0-0.1,0-0.1,0-0.2C697.2,61.5,697.5,60.1,697.5,58.6z"/>
</g>
<g id="XMLID_7_" class="st0">
	<path id="XMLID_14_" class="st4" d="M194.3,233.3c0,0.7-0.2,1.4-0.5,1.9c-0.3,0.6-0.9,1.1-1.8,1.4c-0.9,0.4-2.1,0.6-3.6,0.9
		c-1.5,0.2-3.5,0.3-5.9,0.3c-3.1,0-5.7-0.1-7.6-0.4c-2-0.3-3.4-0.8-4.4-1.5c-1-0.7-1.8-1.5-2.4-2.4l-63.7-86.6v86.6
		c0,0.6-0.2,1.2-0.5,1.8c-0.4,0.6-1,1-1.9,1.3c-0.9,0.3-2.1,0.6-3.5,0.8c-1.5,0.2-3.3,0.3-5.6,0.3c-2.1,0-4-0.1-5.5-0.3
		c-1.5-0.2-2.7-0.5-3.6-0.8c-0.9-0.3-1.5-0.8-1.9-1.3c-0.4-0.6-0.5-1.2-0.5-1.8V67.3c0-0.7,0.2-1.3,0.5-1.9c0.4-0.5,1-1,1.9-1.3
		c0.9-0.3,2.1-0.6,3.6-0.8c1.5-0.2,3.3-0.3,5.5-0.3c2.2,0,4.1,0.1,5.6,0.3c1.5,0.2,2.7,0.5,3.5,0.8c0.9,0.3,1.5,0.7,1.9,1.3
		c0.4,0.5,0.5,1.2,0.5,1.9v77l61.3-77c0.5-0.8,1.2-1.5,1.9-2c0.7-0.5,1.6-1,2.6-1.3c1-0.3,2.3-0.6,3.7-0.7c1.5-0.2,3.4-0.3,5.7-0.3
		c2.3,0,4.2,0.1,5.6,0.3c1.4,0.2,2.6,0.5,3.4,0.9c0.8,0.4,1.4,0.8,1.7,1.3c0.3,0.5,0.5,1.1,0.5,1.7c0,1.2-0.3,2.3-0.9,3.5
		c-0.6,1.2-1.7,2.8-3.3,4.8l-57.4,68.7l61.8,82.2c1.5,2.3,2.4,3.9,2.7,4.8C194.2,232,194.3,232.7,194.3,233.3z"/>
	<path id="XMLID_16_" class="st4" d="M333.7,169.7v63.8c0,0.7-0.2,1.3-0.5,1.9c-0.4,0.5-1,1-1.9,1.3c-0.9,0.3-2.1,0.6-3.6,0.8
		c-1.5,0.2-3.3,0.3-5.5,0.3c-2.2,0-4.1-0.1-5.5-0.3c-1.5-0.2-2.7-0.5-3.6-0.8c-0.9-0.3-1.6-0.7-1.9-1.3c-0.4-0.5-0.5-1.2-0.5-1.9
		v-63.8l-49-97.7c-1-2.1-1.6-3.7-1.8-4.8c-0.2-1.2,0-2.1,0.7-2.7c0.7-0.6,1.9-1,3.6-1.2c1.7-0.2,4.1-0.3,7-0.3
		c2.7,0,4.8,0.1,6.5,0.3c1.6,0.2,3,0.4,3.9,0.7c1,0.3,1.7,0.8,2.2,1.3c0.5,0.6,1,1.3,1.4,2.2l24,49.8c2.2,4.7,4.4,9.7,6.7,14.9
		c2.2,5.2,4.5,10.4,6.8,15.7h0.3c2-5.1,4.1-10.1,6.3-15.2c2.2-5,4.4-10,6.6-14.9L360,67.7c0.3-0.9,0.6-1.6,1.1-2.3
		c0.5-0.6,1.2-1.1,2-1.4c0.8-0.3,2-0.6,3.5-0.7c1.5-0.2,3.4-0.3,5.8-0.3c3.2,0,5.7,0.1,7.6,0.3c1.8,0.2,3.1,0.6,3.8,1.3
		c0.7,0.6,1,1.5,0.7,2.7c-0.2,1.2-0.8,2.7-1.8,4.7L333.7,169.7z"/>
	<path id="XMLID_18_" class="st4" d="M490,233.5c0,0.7-0.2,1.3-0.5,1.9c-0.4,0.5-1,1-1.9,1.3c-0.9,0.3-2.1,0.6-3.5,0.8
		c-1.5,0.2-3.3,0.3-5.6,0.3c-2.1,0-4-0.1-5.5-0.3c-1.5-0.2-2.7-0.5-3.6-0.8c-0.9-0.3-1.5-0.7-1.9-1.3c-0.4-0.5-0.5-1.2-0.5-1.9V67.3
		c0-0.7,0.2-1.3,0.6-1.9c0.4-0.5,1.1-1,2-1.3c0.9-0.3,2.1-0.6,3.6-0.8c1.5-0.2,3.2-0.3,5.3-0.3c2.2,0,4.1,0.1,5.6,0.3
		c1.5,0.2,2.7,0.5,3.5,0.8c0.9,0.3,1.5,0.7,1.9,1.3c0.4,0.5,0.5,1.2,0.5,1.9V233.5z"/>
	<path id="XMLID_20_" class="st4" d="M660.8,233c-0.4,1-0.8,1.8-1.5,2.4c-0.6,0.6-1.5,1.1-2.6,1.5c-1.1,0.4-2.5,0.6-4.3,0.7
		c-1.7,0.1-3.9,0.2-6.5,0.2c-2,0-3.7,0-5.2-0.1c-1.5,0-2.7-0.2-3.8-0.3c-1.1-0.2-2-0.4-2.7-0.6c-0.8-0.2-1.4-0.5-1.9-0.9
		c-0.5-0.4-1-0.8-1.3-1.3c-0.3-0.5-0.6-1.1-0.9-1.8L573.6,72c-0.7-2-1.1-3.5-1.1-4.8c0-1.2,0.3-2.1,1.1-2.7c0.8-0.6,2.1-1,3.9-1.2
		c1.8-0.2,4.2-0.3,7.2-0.3c2.5,0,4.5,0.1,6,0.2c1.5,0.1,2.6,0.4,3.4,0.7c0.8,0.4,1.4,0.8,1.8,1.4c0.4,0.6,0.8,1.3,1.1,2.2
		l49.7,145.7h0.1l48.3-145.5c0.3-1,0.6-1.8,0.9-2.4c0.4-0.6,1-1.1,1.9-1.5c0.9-0.4,2.1-0.6,3.7-0.7c1.6-0.1,3.7-0.2,6.4-0.2
		c2.8,0,5,0.1,6.6,0.3c1.6,0.2,2.7,0.6,3.3,1.3c0.6,0.6,0.8,1.5,0.7,2.7c-0.1,1.2-0.6,2.8-1.3,4.8L660.8,233z"/>
</g>
<g id="XMLID_3_" class="st0">
	<line id="XMLID_4_" class="st5" x1="278.7" y1="328.3" x2="522.5" y2="328.3"/>
	<line id="XMLID_6_" class="st5" x1="278.7" y1="351.8" x2="522.5" y2="351.8"/>
	<line id="XMLID_5_" class="st5" x1="225.9" y1="339.8" x2="571.3" y2="339.8"/>
</g>
<g id="XMLID_1_">
	<g id="XMLID_2_">
		<g id="XMLID_10_">
			<path id="XMLID_11_" class="st6" d="M65.2,206.7H48.9c-2.5,0-4.5-2-4.5-4.4V54.8c0-2.4,2-4.4,4.5-4.4h16.4c2.5,0,4.5,2,4.5,4.4
				v147.6C69.7,204.7,67.7,206.7,65.2,206.7z M167.3,206.7H150c-1.2,0-2.4-0.5-3.3-1.4l-73.3-77.6c-1.6-1.7-1.6-4.5,0.1-6.1l72.5-70
				c0.8-0.8,2-1.3,3.1-1.3h14.6c4,0,6,4.7,3.1,7.5l-65.1,63.8c-1.7,1.7-1.8,4.4-0.1,6.1l68.7,71.5
				C173.2,202.1,171.2,206.7,167.3,206.7z"/>
			<path id="XMLID_22_" class="st6" d="M399.5,56.3l-53.4,86.9c-0.4,0.6-0.6,1.3-0.6,2v57.6c0,2.2-1.8,3.9-4,3.9h-17.4
				c-2.2,0-4-1.7-4-3.9v-57.6c0-0.7-0.2-1.4-0.5-2l-52-86.9c-1.6-2.6,0.4-5.9,3.4-5.9h17.3c1.4,0,2.7,0.7,3.4,1.9l39.2,66.3
				c1.5,2.6,5.3,2.6,6.9,0l39.3-66.3c0.7-1.2,2-1.9,3.4-1.9h15.4C399.2,50.4,401.1,53.7,399.5,56.3z"/>
			<path id="XMLID_24_" class="st6" d="M508,206.7h-13.9c-2.1,0-3.8-2-3.8-4.4V54.7c0-2.4,1.7-4.4,3.8-4.4H508c2.1,0,3.8,2,3.8,4.4
				v147.6C511.9,204.7,510.1,206.7,508,206.7z"/>
			<path id="XMLID_26_" class="st6" d="M755.4,53.7l-64,151.4c-0.4,0.9-1.3,1.5-2.3,1.5h-22.5c-1,0-1.9-0.6-2.3-1.5L601.2,53.7
				c-0.7-1.6,0.5-3.4,2.3-3.4h19.9c1,0,1.9,0.6,2.3,1.5L677.9,174l0,0.1c0.9,2.1,4,2,4.7-0.2l0,0c0-0.1,0-0.1,0.1-0.2L732,51.9
				c0.4-0.9,1.3-1.5,2.3-1.5h18.8C754.9,50.4,756.1,52.1,755.4,53.7z"/>
		</g>
		<g id="XMLID_8_" class="st0">
			<path id="XMLID_28_" class="st7" d="M51.4,241.3c-0.3,0-0.5,0.1-0.8,0.1c-0.3,0-0.5,0-0.8,0c-0.8,0-1.4-0.1-1.9-0.3
				s-0.8-0.6-1.1-1c-0.2-0.4-0.4-1-0.5-1.7c-0.1-0.7-0.1-1.4-0.1-2.3v-10.8h-2.2v-1.8h2.2v-4.6h1.8v4.6h2.8v1.8h-2.8v11
				c0,0.7,0.1,1.3,0.2,1.7c0.1,0.4,0.3,0.8,0.5,1c0.2,0.2,0.5,0.4,0.8,0.5c0.3,0.1,0.6,0.1,1,0.1c0.2,0,0.3,0,0.4,0
				c0.1,0,0.3,0,0.4,0V241.3z"/>
			<path id="XMLID_30_" class="st7" d="M92.9,223c1.2,0,2.2,0.2,3.2,0.6c0.9,0.4,1.8,1,2.4,1.8c0.7,0.8,1.2,1.8,1.5,2.9
				c0.4,1.2,0.5,2.5,0.5,3.9c0,1.5-0.2,2.8-0.5,4c-0.4,1.2-0.9,2.1-1.5,2.9c-0.7,0.8-1.5,1.4-2.4,1.8c-0.9,0.4-2,0.6-3.2,0.6
				s-2.2-0.2-3.1-0.6c-0.9-0.4-1.7-1-2.4-1.8s-1.2-1.8-1.6-2.9c-0.4-1.2-0.6-2.5-0.6-4c0-1.5,0.2-2.8,0.5-3.9
				c0.4-1.2,0.9-2.1,1.5-2.9c0.7-0.8,1.5-1.4,2.4-1.8C90.7,223.2,91.8,223,92.9,223z M92.9,239.8c0.9,0,1.7-0.2,2.4-0.5
				c0.7-0.3,1.3-0.8,1.9-1.4c0.5-0.6,0.9-1.4,1.2-2.4c0.3-0.9,0.4-2,0.4-3.3c0-1.2-0.1-2.3-0.4-3.3c-0.3-0.9-0.7-1.7-1.2-2.3
				c-0.5-0.6-1.1-1.1-1.9-1.4c-0.7-0.3-1.5-0.5-2.4-0.5c-0.9,0-1.7,0.2-2.4,0.5c-0.7,0.3-1.3,0.8-1.9,1.4c-0.5,0.6-0.9,1.4-1.2,2.3
				c-0.3,0.9-0.4,2-0.4,3.3c0,1.2,0.1,2.3,0.4,3.3c0.3,0.9,0.7,1.7,1.2,2.4c0.5,0.6,1.1,1.1,1.9,1.4
				C91.3,239.6,92.1,239.8,92.9,239.8z"/>
			<path id="XMLID_33_" class="st7" d="M147.9,238.8c-0.4,0.5-0.9,1-1.5,1.3c-0.5,0.4-1.1,0.6-1.6,0.9c-0.6,0.2-1.1,0.4-1.6,0.5
				c-0.5,0.1-1,0.1-1.5,0.1c-3.5,0-5.3-2.2-5.3-6.5v-11.7h1.8V235c0,1.7,0.3,2.9,0.9,3.6c0.6,0.8,1.6,1.2,3.1,1.2
				c1.1,0,2.1-0.3,3-0.9c0.9-0.6,1.8-1.5,2.7-2.6v-12.8h1.8v17.7h-1.8V238.8z"/>
			<path id="XMLID_35_" class="st7" d="M194.4,224.9c-0.2,0-0.3,0-0.5,0c-0.2,0-0.4,0-0.6,0c-0.5,0-1,0.1-1.5,0.3
				c-0.5,0.2-0.9,0.5-1.4,0.8c-0.4,0.3-0.8,0.7-1.2,1.2c-0.4,0.4-0.7,0.9-1,1.3v12.7h-1.8v-17.7h1.8v2.4c0.5-0.6,1-1.1,1.5-1.5
				c0.5-0.4,1-0.7,1.4-0.9c0.5-0.2,0.9-0.4,1.3-0.4c0.4-0.1,0.8-0.1,1.2-0.1c0.1,0,0.2,0,0.3,0c0.1,0,0.2,0,0.4,0V224.9z"/>
			<path id="XMLID_37_" class="st7" d="M230.9,241.2h-1.8v-17.7h1.8V241.2z M230.9,219h-1.8v-2.9h1.8V219z"/>
			<path id="XMLID_40_" class="st7" d="M273.6,241.6c-4.2,0-6.5-1.7-6.9-5.2h1.8c0.1,1.1,0.6,1.9,1.4,2.5s2,0.9,3.7,0.9
				c0.8,0,1.5-0.1,2.1-0.3c0.6-0.2,1.1-0.4,1.5-0.7c0.4-0.3,0.7-0.7,0.9-1.1c0.2-0.4,0.3-0.9,0.3-1.3s-0.1-0.9-0.2-1.2
				s-0.4-0.6-0.8-0.9c-0.4-0.3-1-0.5-1.7-0.8c-0.7-0.3-1.6-0.5-2.7-0.8c-0.9-0.2-1.8-0.5-2.5-0.8c-0.7-0.3-1.3-0.6-1.8-1
				c-0.5-0.4-0.9-0.8-1.1-1.4c-0.3-0.5-0.4-1.2-0.4-2c0-0.7,0.1-1.3,0.4-1.9s0.7-1.1,1.2-1.5c0.5-0.4,1.1-0.7,1.9-0.9
				c0.7-0.2,1.6-0.3,2.5-0.3c2,0,3.6,0.4,4.7,1.1c1.1,0.7,1.6,1.8,1.8,3.4h-1.8c-0.1-0.9-0.5-1.5-1.2-2c-0.7-0.4-1.8-0.6-3.1-0.6
				c-0.7,0-1.3,0.1-1.8,0.2c-0.5,0.1-1,0.3-1.4,0.5c-0.4,0.2-0.7,0.5-0.9,0.9s-0.3,0.8-0.3,1.2c0,0.3,0,0.5,0.1,0.8s0.3,0.6,0.7,0.8
				c0.4,0.3,0.9,0.6,1.6,0.9c0.7,0.3,1.7,0.6,3,0.9c1,0.3,1.9,0.5,2.6,0.8c0.7,0.3,1.3,0.6,1.8,1c0.5,0.4,0.8,0.8,1.1,1.4
				c0.2,0.5,0.4,1.1,0.4,1.8c0,0.8-0.2,1.5-0.5,2.2c-0.3,0.7-0.7,1.3-1.3,1.7s-1.2,0.9-2,1.2C275.4,241.5,274.6,241.6,273.6,241.6z"
				/>
			<path id="XMLID_48_" class="st7" d="M338.7,241.2h-1.8v-11.6c0-1.7-0.3-2.9-0.8-3.7c-0.5-0.7-1.4-1.1-2.7-1.1
				c-0.9,0-1.9,0.3-2.8,0.9c-0.9,0.6-1.8,1.5-2.6,2.5v12.9h-1.8v-11.6c0-0.8-0.1-1.6-0.2-2.2c-0.1-0.6-0.3-1.1-0.6-1.5
				s-0.6-0.7-1.1-0.8c-0.4-0.2-1-0.3-1.6-0.3c-0.9,0-1.8,0.3-2.7,0.9s-1.7,1.5-2.6,2.5v12.9h-1.8v-17.7h1.8v2.6
				c0.6-0.7,1.2-1.2,1.7-1.6c0.5-0.4,1-0.7,1.5-0.9c0.5-0.2,0.9-0.4,1.3-0.4s0.8-0.1,1.2-0.1c1.1,0,2.1,0.3,2.8,0.8
				c0.8,0.5,1.4,1.3,1.7,2.4c0.4-0.6,0.9-1.2,1.4-1.6c0.5-0.4,1-0.8,1.5-1s1-0.4,1.5-0.5c0.5-0.1,1-0.1,1.5-0.1
				c3.2,0,4.8,2.1,4.8,6.4V241.2z"/>
			<path id="XMLID_51_" class="st7" d="M437.9,238.9c-0.6,0.5-1.2,1-1.8,1.4c-0.6,0.4-1.1,0.6-1.7,0.8s-1.1,0.3-1.7,0.4
				c-0.5,0.1-1.1,0.1-1.7,0.1c-0.8,0-1.5-0.1-2.1-0.4c-0.7-0.2-1.2-0.6-1.7-1c-0.5-0.4-0.8-1-1.1-1.6c-0.3-0.6-0.4-1.3-0.4-2
				c0-2,0.8-3.6,2.5-4.7c1.7-1.1,4.2-1.7,7.6-1.7h2c0-0.8,0-1.5-0.1-2.1c-0.1-0.7-0.3-1.2-0.6-1.7c-0.3-0.5-0.8-0.9-1.4-1.1
				c-0.6-0.3-1.5-0.4-2.6-0.4c-1.6,0-2.8,0.3-3.6,0.8c-0.8,0.5-1.3,1.3-1.4,2.4h-1.8c0.2-1.7,0.8-2.9,1.9-3.7
				c1.1-0.8,2.7-1.2,4.9-1.2c1.2,0,2.2,0.2,3.1,0.5c0.8,0.3,1.5,0.7,2,1.3c0.5,0.6,0.9,1.3,1.1,2.1c0.2,0.8,0.4,1.7,0.4,2.8v11.6
				h-1.8V238.9z M437.9,232.1h-2.7c-2.6,0-4.5,0.4-5.8,1.1c-1.3,0.8-1.9,1.9-1.9,3.3c0,1.1,0.4,1.9,1.2,2.5c0.8,0.6,1.9,0.9,3.3,0.9
				c0.6,0,1.2-0.1,1.8-0.3c0.6-0.2,1.1-0.4,1.6-0.7c0.5-0.3,1-0.6,1.4-1s0.8-0.7,1.1-1.1V232.1z"/>
			<path id="XMLID_54_" class="st7" d="M478.6,241.2h-1.8v-25h1.8V241.2z"/>
			<path id="XMLID_92_" class="st7" d="M517.5,241.2h-1.8v-25h1.8V241.2z"/>
			<path id="XMLID_94_" class="st7" d="M556.4,241.2h-1.8v-17.7h1.8V241.2z M556.5,219h-1.8v-2.9h1.8V219z"/>
			<path id="XMLID_97_" class="st7" d="M604.6,238.9c-0.6,0.5-1.2,1-1.8,1.4s-1.1,0.6-1.7,0.8s-1.1,0.3-1.7,0.4
				c-0.5,0.1-1.1,0.1-1.7,0.1c-0.8,0-1.5-0.1-2.1-0.4c-0.7-0.2-1.2-0.6-1.7-1c-0.5-0.4-0.8-1-1.1-1.6c-0.3-0.6-0.4-1.3-0.4-2
				c0-2,0.8-3.6,2.5-4.7c1.7-1.1,4.2-1.7,7.6-1.7h2c0-0.8,0-1.5-0.1-2.1c-0.1-0.7-0.3-1.2-0.6-1.7c-0.3-0.5-0.8-0.9-1.4-1.1
				c-0.6-0.3-1.5-0.4-2.6-0.4c-1.6,0-2.8,0.3-3.6,0.8c-0.8,0.5-1.3,1.3-1.4,2.4H593c0.2-1.7,0.8-2.9,1.9-3.7
				c1.1-0.8,2.7-1.2,4.9-1.2c1.2,0,2.2,0.2,3.1,0.5c0.8,0.3,1.5,0.7,2,1.3c0.5,0.6,0.9,1.3,1.1,2.1c0.2,0.8,0.4,1.7,0.4,2.8v11.6
				h-1.8V238.9z M604.6,232.1H602c-2.6,0-4.5,0.4-5.8,1.1c-1.3,0.8-1.9,1.9-1.9,3.3c0,1.1,0.4,1.9,1.2,2.5c0.8,0.6,1.9,0.9,3.3,0.9
				c0.6,0,1.2-0.1,1.8-0.3c0.6-0.2,1.1-0.4,1.6-0.7c0.5-0.3,1-0.6,1.4-1s0.8-0.7,1.1-1.1V232.1z"/>
			<path id="XMLID_100_" class="st7" d="M645.1,226.1c0.6-0.7,1.1-1.3,1.7-1.7s1.1-0.7,1.6-0.9c0.5-0.2,1-0.3,1.5-0.4
				c0.5-0.1,0.9-0.1,1.3-0.1c3.5,0,5.3,2.1,5.3,6.4v11.7h-1.8v-11.6c0-0.8-0.1-1.5-0.2-2.1c-0.1-0.6-0.4-1.1-0.7-1.5
				c-0.3-0.4-0.7-0.7-1.2-0.9c-0.5-0.2-1.1-0.3-1.9-0.3c-1,0-1.9,0.3-2.9,0.9c-0.9,0.6-1.9,1.4-2.8,2.5v12.9h-1.8v-17.7h1.8V226.1z"
				/>
			<path id="XMLID_102_" class="st7" d="M700.1,241.6c-1.1,0-2.2-0.2-3.1-0.6c-0.9-0.4-1.7-1-2.4-1.8c-0.7-0.8-1.2-1.8-1.6-2.9
				s-0.6-2.5-0.6-4c0-1.5,0.2-2.8,0.5-3.9c0.4-1.2,0.9-2.1,1.6-2.9c0.7-0.8,1.5-1.4,2.4-1.8c0.9-0.4,2-0.6,3.1-0.6
				c0.8,0,1.6,0.1,2.3,0.3c0.7,0.2,1.4,0.6,1.9,1c0.6,0.4,1,1,1.4,1.6c0.4,0.7,0.6,1.4,0.8,2.2h-1.7c-0.1-0.5-0.2-1-0.5-1.5
				c-0.3-0.4-0.6-0.8-1-1.1s-0.9-0.5-1.4-0.7c-0.5-0.1-1.1-0.2-1.7-0.2c-0.9,0-1.7,0.2-2.4,0.5c-0.7,0.3-1.3,0.8-1.9,1.4
				c-0.5,0.6-0.9,1.4-1.2,2.3s-0.4,2-0.4,3.3c0,1.2,0.1,2.3,0.4,3.3c0.3,0.9,0.7,1.7,1.2,2.3c0.5,0.6,1.1,1.1,1.9,1.4
				c0.7,0.3,1.5,0.5,2.4,0.5c0.6,0,1.1-0.1,1.7-0.2c0.5-0.1,1-0.4,1.4-0.6c0.4-0.3,0.8-0.6,1.1-1.1s0.5-0.9,0.5-1.5h1.7
				c-0.2,0.9-0.4,1.6-0.8,2.3c-0.4,0.6-0.8,1.2-1.4,1.6c-0.6,0.4-1.2,0.8-1.9,1C701.7,241.5,701,241.6,700.1,241.6z"/>
			<path id="XMLID_104_" class="st7" d="M748.5,241.6c-1.2,0-2.3-0.2-3.3-0.6c-1-0.4-1.8-1-2.5-1.8c-0.7-0.8-1.2-1.8-1.6-2.9
				c-0.4-1.2-0.6-2.5-0.6-4c0-1.4,0.2-2.7,0.6-3.9c0.4-1.2,0.9-2.1,1.6-2.9c0.7-0.8,1.5-1.4,2.4-1.8c0.9-0.4,2-0.6,3.1-0.6
				c1.2,0,2.2,0.2,3.2,0.6c0.9,0.4,1.8,1,2.4,1.8c0.7,0.8,1.2,1.8,1.5,2.9c0.4,1.2,0.5,2.5,0.5,3.9v0.4h-13.6
				c0.1,1.2,0.3,2.2,0.6,3.1c0.3,0.9,0.8,1.6,1.3,2.2c0.5,0.6,1.2,1,1.9,1.3c0.7,0.3,1.5,0.4,2.3,0.4c0.6,0,1.2-0.1,1.8-0.2
				c0.6-0.1,1.1-0.4,1.6-0.7c0.5-0.3,0.9-0.6,1.2-1.1c0.3-0.4,0.5-0.9,0.6-1.5h1.8c-0.2,0.8-0.5,1.6-0.9,2.2
				c-0.4,0.6-0.9,1.2-1.5,1.6c-0.6,0.4-1.3,0.8-2.1,1C750.2,241.5,749.4,241.6,748.5,241.6z M754.1,230.9c-0.3-2-1-3.5-2-4.6
				s-2.3-1.5-3.9-1.5c-0.8,0-1.5,0.1-2.1,0.4c-0.7,0.2-1.2,0.6-1.7,1.1s-0.9,1.1-1.3,1.9c-0.3,0.8-0.6,1.7-0.7,2.7H754.1z"/>
		</g>
	</g>
	<rect id="XMLID_9_" x="5" y="10" class="st8" width="790" height="272"/>
</g>
<g id="XMLID_108_">
	<path id="XMLID_109_" d="M58.2,256.6c-1.6,0.6-3.1,0.9-4.5,0.9c-2,0-3.6-0.5-4.7-1.6c-1.1-1-1.6-2.6-1.6-4.6v-10.1h-2.9v-4h2.9
		v-5.4h4.8v5.4H57v4h-4.8v9.6c0,0.8,0.2,1.4,0.6,1.9c0.4,0.5,0.8,0.7,1.4,0.7c0.8,0,1.8-0.2,3-0.6L58.2,256.6z"/>
	<path id="XMLID_111_" d="M100.7,247.1c0,2.9-0.9,5.4-2.8,7.4c-1.9,2-4.2,3-7.1,3s-5.2-1-7.1-3c-1.9-2-2.8-4.5-2.8-7.4
		c0-3.1,0.9-5.6,2.8-7.5s4.2-2.9,7.1-2.9s5.3,1,7.1,2.9C99.7,241.5,100.7,244,100.7,247.1z M95.6,247.1c0-1.9-0.4-3.5-1.3-4.6
		s-2-1.8-3.5-1.8s-2.7,0.6-3.6,1.8c-0.9,1.2-1.3,2.7-1.3,4.6c0,1.9,0.4,3.4,1.3,4.6c0.9,1.2,2,1.8,3.6,1.8s2.7-0.6,3.5-1.8
		C95.1,250.5,95.6,249,95.6,247.1z"/>
	<path id="XMLID_114_" d="M142.7,257H138v-2.3c-2.2,1.9-4.2,2.8-6.1,2.8c-2.3,0-4-0.6-5-1.7s-1.5-2.9-1.5-5.4v-13.3h4.9v11.5
		c0,1.9,0.2,3.1,0.5,3.8c0.4,0.7,1,1,2,1c1.6,0,3.3-0.9,5.1-2.7v-13.7h4.9V257z"/>
	<path id="XMLID_116_" d="M182,237.7l-1.9,4.2c-0.8-0.6-1.6-1-2.5-1c-1.4,0-2.7,0.9-4.1,2.6V257h-4.9v-19.8h4.8v2.5
		c0.6-0.9,1.3-1.6,2.2-2.1c0.9-0.5,1.9-0.8,2.8-0.8C179.7,236.7,180.9,237,182,237.7z"/>
	<path id="XMLID_118_" d="M210.5,231.3c0,0.7-0.3,1.4-0.8,1.9c-0.5,0.5-1.2,0.8-2,0.8c-0.8,0-1.4-0.3-2-0.8
		c-0.5-0.5-0.8-1.1-0.8-1.9c0-0.7,0.3-1.3,0.8-1.9s1.2-0.8,1.9-0.8c0.8,0,1.4,0.3,2,0.8C210.2,229.9,210.5,230.5,210.5,231.3z
		 M210.1,257h-4.8v-19.8h4.8V257z"/>
	<path id="XMLID_121_" d="M248.2,251c0,2-0.7,3.6-2.1,4.7c-1.4,1.2-3.2,1.8-5.5,1.8c-1.9,0-3.8-0.5-5.8-1.5l1-3.7
		c0.7,0.4,1.6,0.7,2.5,1s1.6,0.4,2.1,0.4c0.7,0,1.4-0.2,2-0.7c0.6-0.4,0.9-1,0.9-1.7c0-0.5-0.2-0.9-0.6-1.3
		c-0.4-0.4-1.2-0.8-2.4-1.4l-1.6-0.7c-2.5-1.1-3.8-2.9-3.8-5.3c0-1.8,0.7-3.3,2.1-4.4c1.4-1.1,3.2-1.6,5.4-1.6c1.4,0,3.1,0.3,5.2,1
		l-1.1,3.8c-1.4-0.7-2.7-1-3.8-1c-0.8,0-1.4,0.2-2,0.5c-0.6,0.4-0.8,0.8-0.8,1.4c0,0.8,0.6,1.5,1.8,2l1.7,0.7
		c1.9,0.8,3.2,1.6,3.9,2.5C247.8,248.5,248.2,249.6,248.2,251z"/>
	<path id="XMLID_123_" d="M300.3,257h-4.9v-11.3c0-2.1-0.2-3.5-0.5-4.1c-0.3-0.6-0.9-0.9-1.7-0.9c-1.6,0-3.1,0.9-4.3,2.6V257H284
		v-11.5c0-2.1-0.1-3.4-0.4-4s-0.9-0.9-1.8-0.9c-1.6,0-3.1,0.9-4.3,2.6V257h-4.9v-19.8h4.8v2.3c0.7-0.8,1.5-1.5,2.5-2
		c1-0.5,1.9-0.8,2.9-0.8c2.5,0,4.3,1.1,5.4,3.2c2.1-2.1,4.1-3.2,5.9-3.2c2.2,0,3.8,0.6,4.8,1.7c0.9,1.1,1.4,2.9,1.4,5.4V257z"/>
	<path id="XMLID_125_" d="M372.8,257h-4.9l-0.2-2c-1.8,1.7-3.5,2.5-5.1,2.5c-1.5,0-2.9-0.5-4-1.5c-1.1-1-1.7-2.4-1.7-4.3
		c0-1.8,0.7-3.2,2-4.3c1.3-1.1,3.6-1.9,6.9-2.2l1.8-0.2v-0.3c0-1.5-0.2-2.5-0.6-3.1s-1-0.8-1.9-0.8c-1.8,0-3.6,0.6-5.5,1.9l-1.6-3.4
		c1.1-0.7,2.4-1.3,4-1.8c1.6-0.5,2.9-0.7,4-0.7c2.4,0,4.2,0.6,5.2,1.8c1,1.2,1.6,3.1,1.6,5.7V257z M367.6,252v-4.2
		c-2.3,0.2-3.7,0.6-4.4,1.2c-0.7,0.6-1,1.4-1,2.4c0,0.7,0.2,1.2,0.6,1.7s0.8,0.7,1.3,0.7C365.4,253.7,366.6,253.2,367.6,252z"/>
	<path id="XMLID_128_" d="M410.7,251c0,2-0.7,3.6-2.1,4.7c-1.4,1.2-3.2,1.8-5.5,1.8c-1.9,0-3.8-0.5-5.8-1.5l1-3.7
		c0.7,0.4,1.6,0.7,2.5,1c0.9,0.3,1.6,0.4,2.1,0.4c0.7,0,1.4-0.2,2-0.7c0.6-0.4,0.9-1,0.9-1.7c0-0.5-0.2-0.9-0.6-1.3
		c-0.4-0.4-1.2-0.8-2.4-1.4l-1.6-0.7c-2.5-1.1-3.8-2.9-3.8-5.3c0-1.8,0.7-3.3,2.1-4.4c1.4-1.1,3.2-1.6,5.4-1.6c1.4,0,3.1,0.3,5.2,1
		l-1.1,3.8c-1.4-0.7-2.7-1-3.8-1c-0.8,0-1.4,0.2-2,0.5c-0.6,0.4-0.8,0.8-0.8,1.4c0,0.8,0.6,1.5,1.8,2l1.7,0.7
		c1.9,0.8,3.2,1.6,3.9,2.5C410.3,248.5,410.7,249.6,410.7,251z"/>
	<path id="XMLID_130_" d="M447.1,251c0,2-0.7,3.6-2.1,4.7c-1.4,1.2-3.2,1.8-5.5,1.8c-1.9,0-3.8-0.5-5.8-1.5l1-3.7
		c0.7,0.4,1.6,0.7,2.5,1s1.6,0.4,2.1,0.4c0.7,0,1.4-0.2,2-0.7c0.6-0.4,0.9-1,0.9-1.7c0-0.5-0.2-0.9-0.6-1.3
		c-0.4-0.4-1.2-0.8-2.4-1.4l-1.6-0.7c-2.5-1.1-3.8-2.9-3.8-5.3c0-1.8,0.7-3.3,2.1-4.4c1.4-1.1,3.2-1.6,5.4-1.6c1.4,0,3.1,0.3,5.2,1
		l-1.1,3.8c-1.4-0.7-2.7-1-3.8-1c-0.8,0-1.4,0.2-2,0.5c-0.6,0.4-0.8,0.8-0.8,1.4c0,0.8,0.6,1.5,1.8,2l1.7,0.7
		c1.9,0.8,3.2,1.6,3.9,2.5C446.8,248.5,447.1,249.6,447.1,251z"/>
	<path id="XMLID_132_" d="M490.2,247.1c0,2.9-0.9,5.4-2.8,7.4c-1.9,2-4.2,3-7.1,3s-5.2-1-7.1-3c-1.9-2-2.8-4.5-2.8-7.4
		c0-3.1,0.9-5.6,2.8-7.5s4.2-2.9,7.1-2.9s5.3,1,7.1,2.9C489.3,241.5,490.2,244,490.2,247.1z M485.1,247.1c0-1.9-0.4-3.5-1.3-4.6
		c-0.8-1.2-2-1.8-3.5-1.8s-2.7,0.6-3.6,1.8c-0.9,1.2-1.3,2.7-1.3,4.6c0,1.9,0.4,3.4,1.3,4.6c0.9,1.2,2,1.8,3.6,1.8s2.7-0.6,3.5-1.8
		C484.7,250.5,485.1,249,485.1,247.1z"/>
	<path id="XMLID_135_" d="M529.9,256.1c-2.2,0.9-4.3,1.4-6.3,1.4c-2.9,0-5.3-1-7.1-2.9c-1.8-2-2.7-4.5-2.7-7.5
		c0-3.1,0.9-5.6,2.7-7.5c1.8-1.9,4.2-2.9,7.1-2.9c2.3,0,4.4,0.5,6.3,1.4l-1.4,4c-1.4-0.9-3.1-1.4-4.9-1.4c-1.4,0-2.6,0.6-3.5,1.8
		c-0.9,1.2-1.3,2.7-1.3,4.6c0,1.7,0.5,3.1,1.5,4.4c1,1.3,2.2,2,3.6,2c0.9,0,1.9-0.1,2.9-0.4c1-0.2,1.8-0.5,2.3-0.8L529.9,256.1z"/>
	<path id="XMLID_137_" d="M559.7,231.3c0,0.7-0.3,1.4-0.8,1.9c-0.5,0.5-1.2,0.8-2,0.8c-0.8,0-1.4-0.3-2-0.8
		c-0.5-0.5-0.8-1.1-0.8-1.9c0-0.7,0.3-1.3,0.8-1.9s1.2-0.8,1.9-0.8c0.8,0,1.4,0.3,2,0.8C559.4,229.9,559.7,230.5,559.7,231.3z
		 M559.3,257h-4.8v-19.8h4.8V257z"/>
	<path id="XMLID_140_" d="M600.4,257h-4.9l-0.2-2c-1.8,1.7-3.5,2.5-5.1,2.5c-1.5,0-2.9-0.5-4-1.5c-1.1-1-1.7-2.4-1.7-4.3
		c0-1.8,0.7-3.2,2-4.3c1.3-1.1,3.6-1.9,6.9-2.2l1.8-0.2v-0.3c0-1.5-0.2-2.5-0.6-3.1s-1-0.8-1.9-0.8c-1.8,0-3.6,0.6-5.5,1.9l-1.6-3.4
		c1.1-0.7,2.4-1.3,4-1.8c1.6-0.5,2.9-0.7,4-0.7c2.4,0,4.2,0.6,5.2,1.8c1,1.2,1.6,3.1,1.6,5.7V257z M595.2,252v-4.2
		c-2.3,0.2-3.7,0.6-4.4,1.2c-0.7,0.6-1,1.4-1,2.4c0,0.7,0.2,1.2,0.6,1.7s0.8,0.7,1.3,0.7C593,253.7,594.2,253.2,595.2,252z"/>
	<path id="XMLID_143_" d="M637.9,256.6c-1.6,0.6-3.1,0.9-4.5,0.9c-2,0-3.6-0.5-4.7-1.6c-1.1-1-1.6-2.6-1.6-4.6v-10.1h-2.9v-4h2.9
		v-5.4h4.8v5.4h4.8v4H632v9.6c0,0.8,0.2,1.4,0.6,1.9c0.4,0.5,0.8,0.7,1.4,0.7c0.8,0,1.8-0.2,3-0.6L637.9,256.6z"/>
	<path id="XMLID_145_" d="M667.2,231.3c0,0.7-0.3,1.4-0.8,1.9c-0.5,0.5-1.2,0.8-2,0.8c-0.8,0-1.4-0.3-2-0.8
		c-0.5-0.5-0.8-1.1-0.8-1.9c0-0.7,0.3-1.3,0.8-1.9s1.2-0.8,1.9-0.8c0.8,0,1.4,0.3,2,0.8C666.9,229.9,667.2,230.5,667.2,231.3z
		 M666.8,257H662v-19.8h4.8V257z"/>
	<path id="XMLID_148_" d="M711.5,247.1c0,2.9-0.9,5.4-2.8,7.4c-1.9,2-4.2,3-7.1,3s-5.2-1-7.1-3c-1.9-2-2.8-4.5-2.8-7.4
		c0-3.1,0.9-5.6,2.8-7.5s4.2-2.9,7.1-2.9s5.3,1,7.1,2.9C710.6,241.5,711.5,244,711.5,247.1z M706.4,247.1c0-1.9-0.4-3.5-1.3-4.6
		c-0.8-1.2-2-1.8-3.5-1.8s-2.7,0.6-3.6,1.8c-0.9,1.2-1.3,2.7-1.3,4.6c0,1.9,0.4,3.4,1.3,4.6c0.9,1.2,2,1.8,3.6,1.8s2.7-0.6,3.5-1.8
		C706,250.5,706.4,249,706.4,247.1z"/>
	<path id="XMLID_151_" d="M753.6,257h-4.9v-11.5c0-1.9-0.2-3.1-0.5-3.8c-0.4-0.7-1-1-2-1c-1.8,0-3.5,0.8-5.1,2.5V257h-4.9v-19.8h4.8
		v2.2c2.1-1.8,4.1-2.6,6.1-2.6c2.3,0,4,0.6,5,1.7s1.5,2.9,1.5,5.4V257z"/>
</g>
</svg>
